<svg width="4000" height="681" viewBox="0 0 4000 681" fill="none" xmlns="http://www.w3.org/2000/svg">
<path d="M2018.48 157.731C2018.48 224.063 2073.54 272.581 2143.49 272.581C2213.43 272.581 2268.55 224.063 2268.55 157.731V5.33768H2200.82V149.875C2200.82 185.679 2175.97 209.789 2143.31 209.789C2110.64 209.789 2085.79 185.799 2085.79 149.875V5.33768H2018.06L2018.48 157.731ZM2449.51 66.3311H2530.32V267.544H2598.05V66.3311H2678.86V5.2177H2449.51V66.3311ZM2405.74 5.2177H2338.01V267.544H2405.74V5.2177ZM1744.88 66.3311H1825.69V267.544H1893.42V66.3311H1974.17V5.2177H1744.88V66.3311ZM1389.56 5.2177H1321.84V267.544H1389.56V5.2177ZM1709.22 114.79C1709.22 48.4589 1654.16 0 1584.15 0C1514.15 0 1459.09 48.4589 1459.09 114.79V267.544H1526.81V123.006C1526.81 87.2021 1551.67 63.0925 1584.33 63.0925C1616.99 63.0925 1641.85 87.0821 1641.85 123.006V267.544H1709.58L1709.16 114.79H1709.22Z" fill="#236CFF"/>
<path d="M2123.63 661.975C2166.64 661.975 2201.5 627.109 2201.5 584.098C2201.5 541.088 2166.64 506.221 2123.63 506.221C2080.62 506.221 2045.75 541.088 2045.75 584.098C2045.75 627.109 2080.62 661.975 2123.63 661.975Z" fill="#2CA01C"/>
<path d="M2067.5 584.099C2067.5 600.572 2080.9 613.725 2097.68 613.725H2101.98V602.723H2097.68C2087.35 602.723 2078.75 594.302 2078.75 584.099C2078.75 573.895 2087.35 565.475 2097.68 565.475H2108.01V623.068C2108.01 629.03 2113.17 634.071 2119.25 634.071V554.411H2097.68C2080.9 554.411 2067.5 567.565 2067.5 584.037V584.099ZM2149.5 554.472H2145.19V565.475H2149.5C2159.82 565.475 2168.43 573.895 2168.43 584.099C2168.43 594.302 2159.82 602.723 2149.5 602.723H2139.17V545.191C2139.17 539.229 2134.01 534.188 2127.92 534.188V613.787H2149.5C2166.28 613.787 2179.68 600.633 2179.68 584.16C2179.68 567.687 2166.28 554.534 2149.5 554.534V554.472Z" fill="white"/>
<path d="M2280.41 680.43V635.932H2280.16C2275.53 643.004 2266.46 647.385 2256.44 647.385C2234.66 647.385 2221.21 630.362 2221.21 609.896C2221.21 589.431 2235.54 572.971 2256 572.971C2269.15 572.971 2277.16 579.292 2280.79 584.862H2281.23V575.036H2298.44V680.556L2280.41 680.43ZM2259.95 632.615C2273.09 632.615 2280.98 621.037 2280.98 610.021C2280.98 599.006 2273.09 587.178 2259.95 587.178C2246.05 587.178 2239.29 598.756 2239.29 609.771C2239.29 620.786 2245.99 632.615 2259.95 632.615Z" fill="black"/>
<path d="M2381.91 645.257H2364.89V633.991H2364.64C2361.51 641.063 2353 647.322 2342.36 647.322C2323.71 647.322 2315.89 633.24 2315.89 618.908V574.91H2333.79V613.901C2333.79 622.225 2335.73 632.677 2347.24 632.677C2358.76 632.677 2363.95 622.976 2363.95 613.651V574.973H2381.91V645.319V645.257Z" fill="black"/>
<path d="M2400.14 574.913H2418.1V645.26H2400.14V574.913Z" fill="black"/>
<path d="M2484.95 594.437C2482.13 590.494 2476 587.552 2470.11 587.552C2456.97 587.552 2450.4 599.131 2450.4 610.146C2450.4 621.161 2457.09 632.739 2470.68 632.739C2476.25 632.739 2482.32 630.549 2485.76 626.418L2496.9 637.558C2490.95 643.879 2481.06 647.384 2470.43 647.384C2449.27 647.384 2431.56 633.615 2431.56 610.208C2431.56 586.801 2448.9 573.032 2469.92 573.032C2480.44 573.032 2491.33 577.163 2496.9 583.985L2484.63 594.562L2484.82 594.437H2484.95Z" fill="black"/>
<path d="M2506.16 534.543H2524.12V604.577H2524.56L2551.78 574.973H2574.81L2543.77 606.767L2576.82 645.32H2553.1L2524.74 609.27H2524.31V645.32H2506.34V534.48H2506.22L2506.16 534.543Z" fill="black"/>
<path d="M2602.91 534.546V583.926H2603.41C2607.1 579.357 2614.3 572.974 2627.44 572.974C2647.85 572.974 2662.24 589.121 2662.24 609.899C2662.24 630.678 2648.78 647.388 2627 647.388C2616.99 647.388 2607.29 642.819 2602.41 634.808H2602.16V645.385H2585.13V534.546H2602.91ZM2623.37 587.243C2610.23 587.243 2602.35 599.134 2602.35 610.087C2602.35 621.039 2610.23 632.68 2623.37 632.68C2637.27 632.68 2644.03 620.852 2644.03 609.837C2644.03 598.821 2637.33 587.243 2623.37 587.243Z" fill="black"/>
<path d="M2711.31 572.908C2732.96 572.908 2750.3 587.678 2750.3 609.834C2750.3 631.989 2732.96 647.323 2711.31 647.323C2689.65 647.323 2672.32 631.927 2672.32 609.834C2672.32 587.741 2689.65 572.908 2711.31 572.908ZM2711.31 632.678C2725.52 632.678 2732.09 620.849 2732.09 609.834C2732.09 598.819 2725.52 587.24 2711.31 587.24C2697.1 587.24 2690.53 598.819 2690.53 609.834C2690.53 620.849 2697.1 632.678 2711.31 632.678Z" fill="black"/>
<path d="M2798.95 572.908C2820.6 572.908 2837.94 587.678 2837.94 609.834C2837.94 631.989 2820.6 647.323 2798.95 647.323C2777.3 647.323 2759.96 631.927 2759.96 609.834C2759.96 587.741 2777.3 572.908 2798.95 572.908ZM2798.95 632.678C2813.16 632.678 2819.73 620.849 2819.73 609.834C2819.73 598.819 2813.16 587.24 2798.95 587.24C2784.74 587.24 2778.17 598.819 2778.17 609.834C2778.17 620.849 2784.74 632.678 2798.95 632.678Z" fill="black"/>
<path d="M2852.01 534.543H2869.97V604.577H2870.47L2897.69 574.973H2920.73L2889.68 606.767L2922.73 645.32H2899.01L2870.66 609.27H2870.16V645.32H2852.19V534.48H2852.07L2852.01 534.543Z" fill="black"/>
<path d="M2971.48 593.686C2968.35 589.555 2962.35 586.113 2955.77 586.113C2950.08 586.113 2944.26 588.115 2944.26 593.686C2944.26 599.256 2949.83 600.57 2959.84 602.886C2970.48 605.389 2983 610.083 2983 623.852C2983 641 2968.79 647.322 2953.15 647.322C2942.13 647.322 2930.61 643.191 2923.73 635.743L2935.5 624.916C2939.38 629.86 2946.14 633.741 2953.83 633.741C2959.03 633.741 2965.35 631.675 2965.35 625.417C2965.35 619.596 2959.78 617.844 2948.89 615.34C2938.25 612.837 2927.74 608.644 2927.74 595.438C2927.74 579.792 2942.07 573.032 2956.27 573.032C2966.54 573.032 2977.3 576.537 2983.12 583.734L2971.48 593.811V593.686Z" fill="black"/>
<path d="M3238.94 661.975C3281.95 661.975 3316.82 627.109 3316.82 584.098C3316.82 541.088 3281.95 506.221 3238.94 506.221C3195.93 506.221 3161.06 541.088 3161.06 584.098C3161.06 627.109 3195.93 661.975 3238.94 661.975Z" fill="#FFE01B"/>
<path d="M3262.33 584.603C3263.13 584.505 3263.9 584.505 3264.6 584.603C3265.01 583.668 3265.08 582.053 3264.71 580.298C3264.17 577.687 3263.43 576.108 3261.91 576.356C3260.38 576.603 3260.33 578.492 3260.87 581.104C3261.17 582.569 3261.72 583.828 3262.33 584.603Z" fill="black"/>
<path d="M3249.25 586.666C3250.34 587.146 3251.01 587.461 3251.28 587.187C3251.45 587.012 3251.39 586.686 3251.13 586.258C3250.59 585.381 3249.49 584.488 3248.31 583.987C3245.9 582.955 3243.04 583.296 3240.83 584.885C3240.1 585.422 3239.41 586.16 3239.51 586.609C3239.54 586.753 3239.65 586.862 3239.91 586.898C3240.51 586.965 3242.61 585.902 3245.03 585.757C3246.74 585.654 3248.16 586.186 3249.25 586.666H3249.25Z" fill="black"/>
<path d="M3247.05 587.918C3245.63 588.14 3244.85 588.609 3244.34 589.048C3243.91 589.425 3243.65 589.838 3243.65 590.132C3243.65 590.271 3243.71 590.349 3243.76 590.39C3243.83 590.447 3243.9 590.478 3243.99 590.478C3244.31 590.478 3245.03 590.189 3245.03 590.189C3247.01 589.482 3248.31 589.564 3249.6 589.714C3250.31 589.796 3250.65 589.838 3250.81 589.595C3250.86 589.523 3250.91 589.373 3250.77 589.141C3250.43 588.599 3249 587.691 3247.04 587.923L3247.05 587.918Z" fill="black"/>
<path d="M3257.92 592.519C3258.88 592.994 3259.95 592.808 3260.29 592.101C3260.64 591.399 3260.14 590.445 3259.17 589.97C3258.21 589.495 3257.14 589.681 3256.8 590.388C3256.45 591.09 3256.95 592.045 3257.92 592.519Z" fill="black"/>
<path d="M3264.12 587.104C3263.34 587.088 3262.69 587.95 3262.67 589.024C3262.65 590.097 3263.28 590.98 3264.06 590.995C3264.85 591.011 3265.5 590.149 3265.51 589.075C3265.53 588.002 3264.91 587.119 3264.12 587.104Z" fill="black"/>
<path d="M3211.46 606.477C3211.26 606.235 3210.94 606.307 3210.63 606.379C3210.42 606.431 3210.17 606.488 3209.9 606.482C3209.32 606.472 3208.84 606.224 3208.57 605.806C3208.21 605.259 3208.23 604.439 3208.62 603.505C3208.67 603.381 3208.74 603.236 3208.81 603.087C3209.44 601.678 3210.49 599.314 3209.31 597.069C3208.42 595.376 3206.97 594.323 3205.23 594.101C3203.55 593.89 3201.83 594.509 3200.73 595.722C3199 597.637 3198.73 600.238 3199.06 601.156C3199.18 601.492 3199.37 601.585 3199.51 601.605C3199.81 601.647 3200.25 601.43 3200.52 600.697C3200.54 600.645 3200.57 600.563 3200.6 600.46C3200.72 600.073 3200.95 599.345 3201.31 598.767C3201.76 598.065 3202.46 597.585 3203.28 597.41C3204.12 597.229 3204.97 597.389 3205.68 597.859C3206.89 598.653 3207.36 600.14 3206.84 601.564C3206.57 602.297 3206.14 603.701 3206.23 604.857C3206.43 607.195 3207.86 608.129 3209.15 608.232C3210.41 608.278 3211.29 607.576 3211.51 607.06C3211.64 606.756 3211.53 606.57 3211.46 606.493L3211.46 606.477Z" fill="black"/>
<path d="M3283.89 602.21C3283.85 602.04 3283.53 600.904 3283.11 599.532C3282.68 598.159 3282.24 597.194 3282.24 597.194C3283.95 594.629 3283.98 592.332 3283.75 591.032C3283.51 589.422 3282.84 588.044 3281.49 586.624C3280.14 585.205 3277.37 583.75 3273.48 582.661C3273.04 582.537 3271.58 582.134 3271.45 582.093C3271.44 582.011 3271.34 577.283 3271.25 575.255C3271.19 573.789 3271.06 571.498 3270.35 569.243C3269.51 566.192 3268.03 563.519 3266.19 561.811C3271.27 556.547 3274.44 550.746 3274.43 545.766C3274.42 536.197 3262.67 533.302 3248.18 539.299C3248.17 539.304 3245.14 540.589 3245.11 540.6C3245.09 540.584 3239.56 535.155 3239.48 535.083C3222.96 520.689 3171.33 578.078 3187.84 592.017L3191.45 595.073C3190.51 597.498 3190.14 600.275 3190.45 603.263C3190.83 607.098 3192.81 610.777 3196.02 613.616C3199.06 616.315 3203.07 618.018 3206.95 618.018C3213.38 632.819 3228.05 641.902 3245.26 642.413C3263.72 642.96 3279.22 634.3 3285.71 618.74C3286.13 617.646 3287.94 612.728 3287.94 608.383C3287.94 604.037 3285.47 602.21 3283.9 602.21H3283.89ZM3208.36 613.863C3207.8 613.961 3207.23 613.998 3206.66 613.982C3201.08 613.832 3195.06 608.811 3194.46 602.86C3193.8 596.28 3197.16 591.218 3203.12 590.015C3203.83 589.871 3204.69 589.788 3205.61 589.834C3208.95 590.015 3213.87 592.58 3214.99 599.841C3215.98 606.277 3214.4 612.826 3208.37 613.858L3208.36 613.863ZM3202.14 586.082C3198.43 586.805 3195.16 588.905 3193.17 591.806C3191.97 590.81 3189.75 588.885 3189.36 588.131C3186.17 582.078 3192.84 570.306 3197.5 563.658C3209.01 547.221 3227.04 534.789 3235.39 537.044C3236.74 537.426 3241.24 542.638 3241.24 542.638C3241.24 542.638 3232.89 547.268 3225.16 553.719C3214.73 561.744 3206.86 573.413 3202.14 586.072L3202.14 586.082ZM3260.66 611.407C3260.78 611.355 3260.87 611.216 3260.85 611.082C3260.84 610.911 3260.68 610.788 3260.52 610.808C3260.52 610.808 3251.78 612.104 3243.53 609.079C3244.43 606.158 3246.82 607.211 3250.43 607.505C3256.94 607.892 3262.78 606.943 3267.09 605.704C3270.83 604.631 3275.73 602.515 3279.55 599.511C3280.83 602.334 3281.29 605.446 3281.29 605.446C3281.29 605.446 3282.28 605.265 3283.11 605.782C3283.9 606.267 3284.48 607.273 3284.09 609.869C3283.29 614.725 3281.22 618.668 3277.75 622.291C3275.64 624.562 3273.07 626.544 3270.14 627.978C3268.58 628.799 3266.93 629.506 3265.17 630.079C3252.09 634.352 3238.71 629.656 3234.39 619.571C3234.04 618.813 3233.75 618.018 3233.52 617.187C3231.68 610.54 3233.24 602.566 3238.12 597.55C3238.42 597.23 3238.73 596.853 3238.73 596.378C3238.73 595.981 3238.48 595.563 3238.26 595.269C3236.55 592.792 3230.64 588.57 3231.83 580.406C3232.68 574.538 3237.81 570.404 3242.6 570.651C3243 570.672 3243.41 570.698 3243.81 570.719C3245.88 570.842 3247.69 571.106 3249.4 571.178C3252.25 571.302 3254.82 570.884 3257.87 568.35C3258.89 567.493 3259.72 566.755 3261.11 566.518C3261.25 566.492 3261.62 566.363 3262.35 566.399C3263.09 566.44 3263.8 566.641 3264.43 567.065C3266.87 568.685 3267.22 572.618 3267.34 575.492C3267.42 577.134 3267.61 581.107 3267.68 582.243C3267.84 584.849 3268.53 585.215 3269.91 585.675C3270.69 585.933 3271.41 586.124 3272.48 586.423C3275.71 587.331 3277.62 588.25 3278.83 589.432C3279.54 590.17 3279.88 590.954 3279.98 591.703C3280.36 594.479 3277.82 597.911 3271.11 601.028C3263.77 604.435 3254.86 605.296 3248.71 604.615C3248.24 604.564 3246.56 604.373 3246.55 604.373C3241.63 603.712 3238.82 610.07 3241.78 614.431C3243.68 617.239 3248.87 619.066 3254.05 619.071C3265.95 619.071 3275.09 613.992 3278.5 609.606C3278.6 609.477 3278.61 609.461 3278.77 609.219C3278.93 608.966 3278.8 608.826 3278.59 608.971C3275.81 610.87 3263.47 618.42 3250.27 616.15C3250.27 616.15 3248.66 615.886 3247.2 615.314C3246.03 614.859 3243.6 613.74 3243.3 611.242C3253.96 614.54 3260.66 611.422 3260.66 611.422L3260.66 611.407ZM3223.4 563.586C3227.5 558.859 3232.53 554.746 3237.05 552.439C3237.2 552.361 3237.37 552.526 3237.29 552.681C3236.93 553.332 3236.24 554.72 3236.02 555.773C3235.98 555.938 3236.16 556.062 3236.3 555.964C3239.11 554.049 3243.99 552 3248.28 551.737C3248.46 551.727 3248.55 551.964 3248.41 552.072C3247.76 552.573 3247.05 553.264 3246.52 553.961C3246.44 554.08 3246.52 554.25 3246.67 554.25C3249.68 554.271 3253.92 555.324 3256.68 556.877C3256.87 556.98 3256.73 557.347 3256.53 557.295C3252.35 556.335 3245.5 555.608 3238.39 557.342C3232.04 558.89 3227.19 561.279 3223.66 563.855C3223.48 563.984 3223.26 563.746 3223.41 563.581L3223.4 563.586Z" fill="black"/>
<path d="M3450.06 601.584V645.518H3432.53V606.573C3432.53 598.237 3430.64 587.832 3419.45 587.832C3408.25 587.832 3403.99 598.115 3403.99 607.182V645.518H3386.59V603.044C3386.59 594.403 3382.51 587.771 3373.63 587.771C3363.16 587.771 3358.35 597.446 3358.35 606.756V645.396H3340.95V575.114H3357.5V586.371H3357.74C3360.79 579.495 3368.21 573.045 3379.47 573.045C3390.73 573.045 3397.36 578.521 3401.31 586.371C3406 577.913 3413.79 573.045 3424.32 573.045C3442.51 573.045 3450.12 587.101 3450.12 601.462L3450.06 601.584Z" fill="black"/>
<path d="M3510.79 636.51H3510.3C3506.84 642.717 3498.56 647.219 3488.58 647.219C3477.38 647.219 3462.42 641.804 3462.42 625.374C3462.42 604.442 3488.58 601.521 3510.43 601.521V599.756C3510.43 591.115 3503.12 586.856 3494.42 586.856C3487 586.856 3479.88 590.324 3475.38 594.949L3466.37 584.239C3474.22 576.937 3485.29 573.104 3495.88 573.104C3520.95 573.104 3527.04 588.62 3527.04 602.677V645.394H3510.73V636.449H3510.79V636.51ZM3510.55 613.447H3506.59C3495.52 613.447 3479.94 614.786 3479.94 625.131C3479.94 631.824 3486.21 633.954 3492.17 633.954C3504.16 633.954 3510.55 627.078 3510.55 615.942V613.447Z" fill="black"/>
<path d="M3544.69 575.173H3562.15V645.455H3544.69V575.173Z" fill="black"/>
<path d="M3553.75 563.859C3559.65 563.859 3564.4 559.052 3564.4 553.149C3564.4 547.247 3559.65 542.439 3553.75 542.439C3547.85 542.439 3543.1 547.247 3543.1 553.149C3543.1 559.052 3547.85 563.859 3553.75 563.859Z" fill="black"/>
<path d="M3773.59 564.157C3779.49 564.157 3784.24 559.349 3784.24 553.447C3784.24 547.544 3779.49 542.737 3773.59 542.737C3767.69 542.737 3762.94 547.544 3762.94 553.447C3762.94 559.349 3767.69 564.157 3773.59 564.157Z" fill="black"/>
<path d="M3579.59 534.921H3597.12V645.547H3579.59V534.921Z" fill="black"/>
<path d="M3662.81 594.705C3660.07 590.75 3654.04 587.829 3648.38 587.829C3635.54 587.829 3629.16 599.39 3629.16 610.404C3629.16 621.418 3635.73 632.98 3648.93 632.98C3654.35 632.98 3660.31 630.789 3663.66 626.651L3674.55 637.787C3668.71 644.115 3659.09 647.584 3648.75 647.584C3628.12 647.584 3610.9 633.832 3610.9 610.404C3610.9 586.977 3627.82 573.225 3648.32 573.225C3658.55 573.225 3669.2 577.302 3674.67 584.178L3662.74 594.705L3662.93 594.583L3662.81 594.705Z" fill="black"/>
<path d="M3747.79 645.73H3730.27V607.09C3730.27 598.753 3728.5 588.469 3717.31 588.469C3706.11 588.469 3700.88 598.023 3700.88 607.333V645.669H3683.41V534.921H3700.88V585.123H3701.12C3703.86 579.281 3711.59 573.257 3721.99 573.257C3740.19 573.257 3747.79 587.313 3747.79 601.674V645.669V645.73Z" fill="black"/>
<path d="M3764.91 575.173H3782.31V645.455H3764.91V575.173Z" fill="black"/>
<path d="M3909.18 601.584V645.518H3891.65V606.573C3891.65 598.237 3889.76 587.832 3878.57 587.832C3867.37 587.832 3863.11 598.115 3863.11 607.182V645.518H3845.65V603.044C3845.65 594.403 3841.57 587.771 3832.69 587.771C3822.22 587.771 3817.41 597.446 3817.41 606.756V645.396H3799.95V575.114H3816.5V586.371H3816.74C3819.79 579.495 3827.21 573.045 3838.47 573.045C3849.72 573.045 3856.36 578.521 3860.31 586.371C3865 577.913 3872.85 573.045 3883.31 573.045C3901.51 573.045 3909.11 587.101 3909.11 601.462L3909.18 601.584Z" fill="black"/>
<path d="M3941.4 575.173V584.969H3941.89C3945.36 579.371 3953.27 573.104 3966.05 573.104C3986.01 573.104 4000 589.229 4000 609.979C4000 630.729 3986.92 647.463 3965.68 647.463C3955.95 647.463 3947.06 643.082 3942.56 636.023H3942.32V680.505H3924.79V575.173H3941.4ZM3962.03 587.464C3949.19 587.464 3941.52 599.33 3941.52 610.283C3941.52 621.236 3949.25 632.859 3962.03 632.859C3975.6 632.859 3982.11 621.054 3982.11 610.04C3982.11 599.026 3975.54 587.464 3962.03 587.464Z" fill="black"/>
<path d="M176.09 589.178V575.102H188.383V554.695H205.655V575.102H223.296V589.178H205.655V621.878C205.655 628.209 207.13 632.696 214.875 632.696C217.211 632.696 220.345 632.204 222.312 631.22L222.927 644.989C219.854 646.157 215.121 646.894 211.248 646.894C192.624 646.894 188.383 635.462 188.383 622.001V589.178H176.09Z" fill="black"/>
<path d="M297.103 645.418H280.445V634.108H280.199C277.126 641.176 268.767 647.446 258.318 647.446C240.001 647.446 232.379 633.37 232.379 618.987V575.039H249.958V614.009C249.958 622.368 251.864 632.756 263.112 632.756C274.36 632.756 279.523 623.044 279.523 613.701V575.039H297.164V645.356L297.103 645.418Z" fill="black"/>
<path d="M331.704 575.04V586.719H331.95C335.761 578.667 343.259 572.95 352.479 572.95C353.832 572.95 355.553 573.073 356.721 573.442V589.608C354.385 588.993 352.91 588.87 351.25 588.87C335.453 588.87 332.38 602.638 332.38 607.74V645.419H314.739V575.102H331.704V575.04Z" fill="black"/>
<path d="M383.173 534.656V584.013H383.665C387.291 579.465 394.36 573.072 407.268 573.072C427.306 573.072 441.443 589.238 441.443 610.014C441.443 630.789 428.289 647.508 406.899 647.508C397.065 647.508 387.537 642.959 382.743 634.907H382.497V645.479H365.84V534.656H383.235H383.173ZM403.273 587.394C390.365 587.394 382.62 599.318 382.62 610.259C382.62 621.2 390.426 632.879 403.273 632.879C416.918 632.879 423.495 621.016 423.495 610.014C423.495 599.011 416.918 587.394 403.273 587.394Z" fill="black"/>
<path d="M489.435 573.071C510.702 573.071 527.728 587.885 527.728 610.012C527.728 632.14 510.702 647.507 489.435 647.507C468.168 647.507 451.142 632.079 451.142 610.012C451.142 587.946 468.168 573.071 489.435 573.071ZM489.435 632.878C503.388 632.878 509.842 621.015 509.842 610.012C509.842 599.01 503.388 587.393 489.435 587.393C475.482 587.393 469.028 598.948 469.028 610.012C469.028 621.076 475.482 632.878 489.435 632.878Z" fill="black"/>
<path d="M531.913 589.181V575.105H544.206V554.698H561.478V575.105H579.119V589.181H561.478V621.881C561.478 628.212 562.953 632.699 570.698 632.699C573.034 632.699 576.169 632.207 578.136 631.223L578.75 644.992C575.677 646.16 570.944 646.897 567.072 646.897C548.447 646.897 544.206 635.465 544.206 622.003V589.181H531.913Z" fill="black"/>
<path d="M633.997 636.442H633.506C630.002 642.65 621.643 647.137 611.624 647.137C600.314 647.137 585.255 641.666 585.255 625.255C585.255 604.295 611.624 601.406 633.629 601.406V599.685C633.629 591.018 626.314 586.777 617.463 586.777C610.026 586.777 602.773 590.281 598.286 594.829L589.189 584.134C597.118 576.82 608.243 572.947 618.938 572.947C644.139 572.947 650.286 588.498 650.286 602.512V645.293H633.874V636.38H633.936L633.997 636.442ZM633.752 613.392H629.756C618.569 613.392 602.896 614.744 602.896 625.07C602.896 631.77 609.227 633.86 615.189 633.86C627.236 633.86 633.69 626.976 633.69 615.85V613.392H633.752Z" fill="black"/>
<path d="M686.986 608.046L661.601 575.101H682.683L697.927 596.982L713.601 575.101H733.823L708.622 608.046L737.327 645.418H715.936L697.62 619.786L679.118 645.418H658.343L686.924 608.046H686.863H686.986Z" fill="black"/>
<path d="M77.8774 661.975C120.888 661.975 155.755 627.109 155.755 584.098C155.755 541.088 120.888 506.221 77.8774 506.221C34.8669 506.221 0 541.088 0 584.098C0 627.109 34.8669 661.975 77.8774 661.975Z" fill="#D52B1E"/>
<path d="M60.6137 613.117C51.5167 606.663 42.9729 599.779 34.7365 592.403C31.7247 598.857 29.1431 605.741 26.5615 612.687C39.5308 623.874 57.1716 636.413 69.2804 643.727C84.7698 603.651 108.987 577.282 132.222 558.781C129.21 552.327 125.337 546.672 120.113 542.001C95.5264 560.933 75.2426 585.089 60.6137 613.117Z" fill="white"/>
<path d="M1155.73 583.887C1150.16 576.997 1139.45 572.892 1129.19 572.892C1108.52 572.892 1091.51 587.259 1091.51 610.13C1091.51 633.587 1108.81 647.368 1129.63 647.368C1140.04 647.368 1149.72 643.849 1155.58 637.545L1144.59 626.403C1141.21 630.508 1135.2 632.707 1129.78 632.707C1116.44 632.707 1109.84 621.125 1109.84 610.13C1109.84 599.134 1116.29 587.552 1129.19 587.552C1134.91 587.552 1140.92 590.484 1143.71 594.443L1155.73 583.887Z" fill="black"/>
<path d="M1165.42 645.316H1183.01V607.637C1183.01 602.506 1186.09 588.725 1201.92 588.725C1203.53 588.725 1205 588.872 1207.35 589.458V573.331C1206.17 573.038 1204.41 572.892 1203.09 572.892C1193.86 572.892 1186.38 578.609 1182.57 586.673H1182.28V574.944H1165.42V645.316Z" fill="black"/>
<path d="M1227.94 603.093C1228.68 593.27 1237.03 586.086 1247.44 586.086C1258.88 586.086 1264.01 594.003 1264.01 603.093H1227.94ZM1281.6 611.009C1281.6 585.646 1267.23 572.892 1247.59 572.892C1226.33 572.892 1210.35 587.846 1210.35 610.57C1210.35 633.44 1226.48 647.368 1248.17 647.368C1261.52 647.368 1271.48 642.677 1278.37 633.294L1266.65 623.911C1262.69 629.482 1256.82 633.001 1248.03 633.001C1237.76 633.001 1228.68 625.67 1227.94 615.701H1281.45C1281.6 614.088 1281.6 612.622 1281.6 611.009Z" fill="black"/>
<path d="M1366.61 534.48H1349.01V583.887H1348.57C1344.91 579.342 1337.87 572.892 1324.97 572.892C1304.89 572.892 1290.81 589.018 1290.81 609.837C1290.81 630.362 1304.01 647.368 1325.41 647.368C1335.23 647.368 1344.76 642.823 1349.6 634.76H1349.89V645.316H1366.61V534.48ZM1308.7 609.837C1308.7 598.841 1315.29 587.259 1328.93 587.259C1341.83 587.259 1349.6 599.134 1349.6 610.13C1349.6 621.125 1341.83 632.707 1328.93 632.707C1315.29 632.707 1308.7 620.832 1308.7 609.837Z" fill="black"/>
<path d="M1384.7 645.316H1402.29V574.944H1384.7V645.316ZM1382.21 551.047C1382.21 556.618 1386.9 561.603 1393.35 561.603C1399.8 561.603 1404.78 557.058 1404.78 551.047C1404.78 545.036 1399.8 540.491 1393.35 540.491C1386.9 540.491 1382.21 545.476 1382.21 551.047Z" fill="black"/>
<path d="M1427.62 589.018V621.858C1427.62 635.346 1431.87 646.782 1450.49 646.782C1454.45 646.782 1459.14 646.049 1462.22 644.876L1461.63 631.095C1459.58 632.121 1456.5 632.561 1454.16 632.561C1446.39 632.561 1444.92 628.016 1444.92 621.712V589.018H1462.51V574.944H1444.92V554.566H1427.62V574.944H1415.31V589.018H1427.62Z" fill="black"/>
<path d="M1475.54 645.316H1493.13V609.25H1493.57L1521.43 645.316H1544.74L1512.34 606.758L1542.83 574.944H1520.25L1493.57 604.559H1493.13V534.48H1475.54V645.316Z" fill="black"/>
<path d="M1595.89 645.316H1612.31V602.506C1612.31 588.432 1606.15 572.892 1580.94 572.892C1570.23 572.892 1559.09 576.703 1551.18 584.034L1560.27 594.736C1564.81 590.191 1571.99 586.673 1579.47 586.673C1588.27 586.673 1595.6 590.924 1595.6 599.574V601.333C1573.61 601.333 1547.22 604.266 1547.22 625.23C1547.22 641.65 1562.32 647.075 1573.61 647.075C1583.58 647.075 1591.93 642.53 1595.45 636.373H1595.89V645.316ZM1595.6 615.701C1595.6 626.843 1589.15 633.734 1577.13 633.734C1571.11 633.734 1564.81 631.681 1564.81 624.937C1564.81 614.528 1580.5 613.209 1591.64 613.209H1595.6V615.701Z" fill="black"/>
<path d="M1627.44 645.316H1645.04V607.637C1645.04 602.506 1648.12 588.725 1663.95 588.725C1665.56 588.725 1667.03 588.872 1669.37 589.458V573.331C1668.2 573.038 1666.44 572.892 1665.12 572.892C1655.89 572.892 1648.41 578.609 1644.6 586.673H1644.3V574.944H1627.44V645.316Z" fill="black"/>
<path d="M1766.64 572.892C1756.08 572.892 1748.17 577.73 1743.48 586.233C1739.52 578.316 1732.33 572.892 1721.49 572.892C1710.2 572.892 1702.72 579.342 1699.64 586.233H1699.35V574.944H1682.63V645.316H1700.23V606.611C1700.23 597.228 1705.07 587.552 1715.62 587.552C1724.56 587.552 1728.67 594.15 1728.67 602.799V645.316H1746.26V606.904C1746.26 597.815 1750.81 587.552 1761.8 587.552C1773.09 587.552 1775 597.961 1775 606.318V645.316H1792.59V601.333C1792.59 586.966 1784.97 572.892 1766.64 572.892Z" fill="black"/>
<path d="M1851.39 645.316H1867.81V602.506C1867.81 588.432 1861.65 572.892 1836.43 572.892C1825.73 572.892 1814.59 576.703 1806.67 584.034L1815.76 594.736C1820.31 590.191 1827.49 586.673 1834.97 586.673C1843.76 586.673 1851.1 590.924 1851.1 599.574V601.333C1829.1 601.333 1802.71 604.266 1802.71 625.23C1802.71 641.65 1817.82 647.075 1829.1 647.075C1839.07 647.075 1847.43 642.53 1850.95 636.373H1851.39V645.316ZM1851.1 615.701C1851.1 626.843 1844.64 633.734 1832.62 633.734C1826.61 633.734 1820.31 631.681 1820.31 624.937C1820.31 614.528 1835.99 613.209 1847.14 613.209H1851.1V615.701Z" fill="black"/>
<path d="M993.149 661.971C1036.16 661.971 1071.02 627.105 1071.02 584.096C1071.02 541.087 1036.16 506.221 993.149 506.221C950.14 506.221 915.274 541.087 915.274 584.096C915.274 627.105 950.14 661.971 993.149 661.971Z" fill="#008600"/>
<path d="M953.883 591.898C953.883 578.499 960.337 571.615 970.724 571.615C978.469 571.615 983.263 574.626 984.984 575.487C986.275 574.196 987.135 572.045 987.135 569.894C987.135 566.022 982.833 562.149 970.294 562.149C955.604 562.149 943.127 572.475 943.127 591.898C943.127 611.321 954.375 621.646 969.003 621.646C978.039 621.646 984.984 618.635 987.135 617.774V607.018C984.984 608.739 977.67 612.181 970.724 612.181C961.259 612.181 953.883 605.297 953.883 591.898ZM1025.49 591.468C1031.94 583.723 1038.03 574.627 1042.33 563.01L1032.86 559.568C1026.84 575.979 1017.74 587.165 1006.99 596.262V539.715H996.662V620.417H1006.99V608.309C1010.86 605.297 1014.3 602.285 1018.24 598.843L1027.7 615.254C1029.85 619.127 1033.29 621.278 1038.03 621.278C1040.61 621.278 1042.33 620.417 1042.76 619.987L1025.49 591.529V591.468Z" fill="white"/>
</svg>
