<svg width="2152" height="313" viewBox="0 0 2152 313" fill="none" xmlns="http://www.w3.org/2000/svg">
<path d="M470.599 105.981C479.297 89.9777 491.421 77.4607 506.971 68.5201C522.524 59.5796 540.182 55.1094 559.863 55.1094C584.02 55.1094 604.663 61.6358 621.886 74.5998C639.108 87.5637 650.524 105.266 656.324 127.707H601.855C597.815 119.035 592.015 112.508 584.633 107.948C577.165 103.389 568.735 101.154 559.244 101.154C543.959 101.154 531.66 106.518 522.169 117.336C512.682 128.154 507.938 142.638 507.938 160.698C507.938 178.758 512.682 193.242 522.169 204.06C531.66 214.878 543.959 220.242 559.244 220.242C568.735 220.242 577.165 218.007 584.633 213.448C592.101 208.888 597.815 202.361 601.855 193.689H656.324C650.524 216.129 639.016 233.743 621.886 246.617C604.663 259.491 584.02 265.929 559.863 265.929C540.182 265.929 522.524 261.459 506.971 252.518C491.421 243.577 479.297 231.15 470.599 215.236C461.901 199.321 457.597 181.172 457.597 160.698C457.597 140.224 461.901 121.985 470.599 105.981Z" fill="#171717"/>
<path d="M711.848 256.541C699.2 249.657 689.273 239.822 681.977 227.036C674.773 214.252 671.082 199.321 671.082 182.244C671.082 165.167 674.773 150.415 682.069 137.541C689.445 124.667 699.463 114.832 712.204 107.948C724.938 101.063 739.26 97.666 755.073 97.666C770.891 97.666 785.207 101.063 797.948 107.948C810.688 114.832 820.7 124.667 828.082 137.541C835.464 150.415 839.063 165.347 839.063 182.244C839.063 199.142 835.372 214.072 827.905 226.947C820.437 239.822 810.333 249.657 797.506 256.541C784.68 263.425 770.364 266.822 754.46 266.822C738.555 266.822 724.411 263.425 711.762 256.541H711.848ZM778.794 212.642C785.471 205.579 788.812 195.476 788.812 182.244C788.812 169.012 785.563 158.999 779.15 151.846C772.644 144.783 764.741 141.207 755.25 141.207C745.759 141.207 737.593 144.694 731.18 151.667C724.766 158.641 721.603 168.833 721.603 182.155C721.603 195.476 724.766 205.49 731.002 212.553C737.237 219.616 745.146 223.192 754.637 223.192C764.122 223.192 772.209 219.616 778.794 212.553V212.642Z" fill="#171717"/>
<path d="M859.271 137.366C865.507 124.581 874.121 114.747 884.924 107.863C895.733 100.978 907.769 97.581 921.122 97.581C931.754 97.581 941.416 99.8158 950.202 104.376C958.988 108.936 965.929 115.015 970.932 122.615V46.2617H1020.48V264.412H970.932V240.809C966.278 248.677 959.687 254.935 951.079 259.674C942.471 264.412 932.453 266.737 921.122 266.737C907.769 266.737 895.733 263.25 884.924 256.277C874.121 249.303 865.598 239.379 859.271 226.505C853.036 213.63 849.872 198.788 849.872 181.801C849.872 164.814 853.036 150.062 859.271 137.277V137.366ZM960.656 152.387C953.801 145.145 945.457 141.479 935.616 141.479C925.776 141.479 917.431 145.055 910.577 152.208C903.728 159.36 900.301 169.284 900.301 181.801C900.301 194.318 903.728 204.332 910.577 211.752C917.431 219.084 925.776 222.838 935.616 222.838C945.457 222.838 953.801 219.173 960.656 211.931C967.51 204.689 970.932 194.765 970.932 182.159C970.932 169.552 967.51 159.629 960.656 152.387Z" fill="#171717"/>
<path d="M1202.17 194.314H1090.07C1090.86 204.506 1094.11 212.374 1099.73 217.738C1105.44 223.103 1112.47 225.875 1120.73 225.875C1133.11 225.875 1141.72 220.6 1146.56 209.96H1199.27C1196.55 220.778 1191.71 230.523 1184.6 239.106C1177.57 247.779 1168.7 254.574 1158.07 259.491C1147.44 264.408 1135.57 266.822 1122.4 266.822C1106.58 266.822 1092.44 263.425 1080.14 256.54C1067.75 249.657 1058.09 239.822 1051.15 227.036C1044.21 214.252 1040.69 199.321 1040.69 182.244C1040.69 165.167 1044.12 150.237 1050.97 137.451C1057.82 124.667 1067.4 114.832 1079.78 107.948C1092.18 101.063 1106.32 97.666 1122.4 97.666C1138.47 97.666 1151.92 100.974 1164.12 107.679C1176.25 114.385 1185.83 123.862 1192.68 136.29C1199.53 148.627 1202.96 163.111 1202.96 179.652C1202.96 184.39 1202.7 189.307 1202.08 194.403L1202.17 194.314ZM1152.35 166.33C1152.35 157.658 1149.45 150.773 1143.66 145.677C1137.86 140.581 1130.65 137.988 1121.95 137.988C1113.26 137.988 1106.67 140.402 1100.96 145.319C1095.25 150.237 1091.73 157.21 1090.42 166.24H1152.44L1152.35 166.33Z" fill="#171717"/>
<path d="M1329.91 264.492L1287.65 186.352H1275.79V264.492H1226.24V57.5176H1309.35C1325.43 57.5176 1339.05 60.3785 1350.38 66.1002C1361.71 71.8226 1370.15 79.6006 1375.77 89.5251C1381.39 99.4489 1384.21 110.535 1384.21 122.694C1384.21 136.463 1380.43 148.712 1372.79 159.53C1365.14 170.348 1353.9 178.037 1339.05 182.507L1385.96 264.492H1330H1329.91ZM1275.71 150.678H1306.45C1315.5 150.678 1322.36 148.444 1326.83 143.884C1331.41 139.324 1333.69 132.976 1333.69 124.751C1333.69 116.525 1331.41 110.714 1326.83 106.155C1322.27 101.595 1315.5 99.3592 1306.45 99.3592H1275.71V150.678Z" fill="#171717"/>
<path d="M1408.89 137.355C1415.13 124.57 1423.74 114.735 1434.55 107.851C1445.35 100.967 1457.48 98.5527 1470.74 98.5527H1570.11V264.401H1520.56V241.155C1515.73 248.844 1509.05 255.013 1500.44 259.752C1491.83 264.49 1481.82 266.815 1470.48 266.815C1457.3 266.815 1445.35 263.328 1434.55 256.355C1423.74 249.381 1415.22 239.457 1408.89 226.583C1402.66 213.708 1399.49 198.866 1399.49 181.879C1399.49 164.892 1402.66 150.14 1408.89 137.355ZM1510.28 152.375C1503.43 145.133 1495.08 141.468 1485.24 141.468C1475.4 141.468 1467.05 145.044 1460.2 152.196C1453.35 159.349 1449.92 169.273 1449.92 181.79C1449.92 194.307 1453.35 204.32 1460.2 211.741C1467.05 219.072 1475.4 222.827 1485.24 222.827C1495.08 222.827 1503.43 219.162 1510.28 211.92C1517.13 204.678 1520.56 194.754 1520.56 182.148C1520.56 169.541 1517.13 159.617 1510.28 152.375Z" fill="#171717"/>
<path d="M1669.82 104.644C1678.52 99.9054 1688.45 97.581 1699.69 97.581C1713.05 97.581 1725.08 100.978 1735.89 107.863C1746.69 114.747 1755.22 124.581 1761.54 137.366C1767.78 150.152 1770.94 164.993 1770.94 181.89C1770.94 198.788 1767.78 213.719 1761.54 226.594C1755.31 239.468 1746.69 249.392 1735.89 256.366C1725.08 263.339 1713.05 266.826 1699.69 266.826C1688.27 266.826 1678.34 264.502 1669.82 259.942C1661.3 255.293 1654.62 249.214 1649.79 241.525V264.502H1600.24V46.2617H1649.79V123.24C1654.45 115.552 1661.13 109.382 1669.82 104.644ZM1710.24 152.297C1703.38 145.145 1694.95 141.568 1684.85 141.568C1674.74 141.568 1666.66 145.234 1659.81 152.476C1652.95 159.718 1649.53 169.642 1649.53 182.248C1649.53 194.854 1652.95 204.779 1659.81 212.02C1666.66 219.262 1675.01 222.928 1684.85 222.928C1694.68 222.928 1703.12 219.262 1710.06 211.842C1717 204.51 1720.51 194.497 1720.51 181.89C1720.51 169.284 1717.09 159.449 1710.24 152.297Z" fill="#171717"/>
<path d="M1860.74 104.644C1869.43 99.9054 1879.36 97.581 1890.61 97.581C1903.96 97.581 1916 100.978 1926.81 107.863C1937.61 114.747 1946.13 124.581 1952.46 137.366C1958.7 150.152 1961.86 164.993 1961.86 181.89C1961.86 198.788 1958.7 213.719 1952.46 226.594C1946.22 239.468 1937.61 249.392 1926.81 256.366C1916 263.339 1903.96 266.826 1890.61 266.826C1879.19 266.826 1869.26 264.502 1860.74 259.942C1852.22 255.293 1845.54 249.214 1840.71 241.525V264.502H1791.16V46.2617H1840.71V123.24C1845.36 115.552 1852.04 109.382 1860.74 104.644ZM1901.15 152.297C1894.3 145.145 1885.86 141.568 1875.76 141.568C1865.66 141.568 1857.57 145.234 1850.72 152.476C1843.87 159.718 1840.44 169.642 1840.44 182.248C1840.44 194.854 1843.87 204.779 1850.72 212.02C1857.57 219.262 1865.92 222.928 1875.76 222.928C1885.6 222.928 1894.04 219.262 1900.98 211.842C1907.92 204.51 1911.43 194.497 1911.43 181.89C1911.43 169.284 1908 159.449 1901.15 152.297Z" fill="#171717"/>
<path d="M1985.75 75.0454C1980.22 69.8594 1977.49 63.4226 1977.49 55.7336C1977.49 48.0446 1980.22 41.3389 1985.75 36.1536C1991.28 30.9677 1998.32 28.375 2007.01 28.375C2015.71 28.375 2022.47 30.9677 2028.01 36.1536C2033.54 41.3389 2036.27 47.8654 2036.27 55.7336C2036.27 63.6012 2033.54 69.8594 2028.01 75.0454C2022.47 80.2307 2015.53 82.8234 2007.01 82.8234C1998.49 82.8234 1991.2 80.2307 1985.75 75.0454ZM2031.7 99.9893V264.496H1982.15V99.8997H2031.7V99.9893Z" fill="#171717"/>
<path d="M2151.89 221.668V264.404H2126.67C2108.75 264.404 2094.7 259.934 2084.68 250.994C2074.66 242.053 2069.66 227.48 2069.66 207.185V141.74H2049.98V99.8974H2069.66V59.8438H2119.2V99.8974H2151.62V141.74H2119.2V207.811C2119.2 212.728 2120.35 216.305 2122.72 218.45C2125 220.596 2128.87 221.668 2134.32 221.668H2151.97H2151.89Z" fill="#171717"/>
<path d="M156.5 0C242.932 0 313 70.0675 313 156.5C313 242.933 242.932 313 156.5 313C70.0675 313 0 242.933 0 156.5C0 70.0675 70.0675 0 156.5 0ZM128.033 43.8221C134.912 93.2711 163.322 80.3865 180.051 114.469C180.051 114.469 151.819 76.094 105.403 90.2231C105.409 90.2345 122.329 125.741 172.361 132.997C172.366 133.016 176.372 146.743 177.58 149.16C177.58 149.16 100.514 108.971 77.1141 186.106C59.6992 182.161 53.8579 201.066 73.8737 213.98C73.8737 213.98 77.2796 200.455 85.5728 196.442C85.5397 196.478 67.7954 216.312 88.7039 240.061H163.818C165.633 237.054 173.665 221.236 153.8 209.263C167.822 209.062 179.238 235.514 191.519 240.243H209.383C209.986 238.773 211.249 234.375 208.283 230.419C203.709 225.172 193.693 225.882 193.782 216.178C197.241 171.04 264.924 184.902 262.773 130.577C262.756 130.554 240.956 102.703 213.557 101.109C195.87 100.065 191.585 102.428 190.818 104.188C189.719 95.062 181.919 52.7824 128.033 43.8221Z" fill="#FF570A"/>
</svg>
